# xmcd CD database file
#
# Track frame offsets:
#	150
#	18027
#	37575
#	59402
#
# Disc length: 949 seconds
#
# Revision: 0
# Processed by: cddbd v1.5.1PL0 Copyright (c) Steve Scherf et al.
# Submitted via: CDex 1.51
#
DISCID=2003b304
DTITLE=PLAGUES - NEW HORIZON
DYEAR=2000
DGENRE=JPop
TTITLE0=NEW HORIZON
TTITLE1=PIZZA SOLUTION
TTITLE2=STAIYN' ALIVE
TTITLE3=俺の鼠
EXTD=YEAR: 2000
EXTT0=
EXTT1=
EXTT2=
EXTT3=
PLAYORDER=
